<?xml version="1.0" encoding="UTF-8"?>
<svg version="1.1" xmlns="http://www.w3.org/2000/svg" width="128" height="128">
<path d="M0 0 C42.24 0 84.48 0 128 0 C128 42.24 128 84.48 128 128 C85.76 128 43.52 128 0 128 C0 85.76 0 43.52 0 0 Z " fill="#4E2780" transform="translate(0,0)"/>
<path d="M0 0 C5.94 0 11.88 0 18 0 C21 3 21 3 21.36328125 5.59375 C21.34652344 6.5528125 21.32976563 7.511875 21.3125 8.5 C21.30863281 9.4590625 21.30476563 10.418125 21.30078125 11.40625 C21 14 21 14 19 17 C19.48895752 17.4122583 19.97791504 17.8245166 20.48168945 18.24926758 C22.32221224 20.37153625 22.35527774 21.24935371 22.29296875 24.01171875 C22.28330078 24.76904297 22.27363281 25.52636719 22.26367188 26.30664062 C22.23853516 27.09232422 22.21339844 27.87800781 22.1875 28.6875 C22.16719727 29.88342773 22.16719727 29.88342773 22.14648438 31.10351562 C22.11117089 33.06929967 22.05736447 35.03473582 22 37 C19.03 37 16.06 37 13 37 C12.67 31.39 12.34 25.78 12 20 C11.01 19.67 10.02 19.34 9 19 C9 24.61 9 30.22 9 36 C6.03 36 3.06 36 0 36 C0 24.12 0 12.24 0 0 Z " fill="#CDB6FC" transform="translate(5,44)"/>
<path d="M0 0 C1.29550781 -0.02126953 1.29550781 -0.02126953 2.6171875 -0.04296875 C5.31611813 0.20506382 6.86285306 0.71367699 9.125 2.1875 C11.33414 5.50121 11.34981553 6.5321021 11.25 10.375 C11.23195313 11.27605469 11.21390625 12.17710938 11.1953125 13.10546875 C11.17210938 13.79253906 11.14890625 14.47960938 11.125 15.1875 C8.155 15.1875 5.185 15.1875 2.125 15.1875 C1.9296875 13.13671875 1.734375 11.0859375 1.5390625 9.03515625 C1.33410156 8.12056641 1.33410156 8.12056641 1.125 7.1875 C0.465 6.8575 -0.195 6.5275 -0.875 6.1875 C-0.875 14.7675 -0.875 23.3475 -0.875 32.1875 C-0.215 31.8575 0.445 31.5275 1.125 31.1875 C1.59151207 29.06173218 1.59151207 29.06173218 1.75 26.625 C1.87375 25.160625 1.9975 23.69625 2.125 22.1875 C5.095 22.1875 8.065 22.1875 11.125 22.1875 C11.75239631 31.1627527 11.75239631 31.1627527 9.25 35.25 C5.50714851 38.66259989 2.51730075 38.51593064 -2.390625 38.48046875 C-5.84698834 38.07287873 -7.56163869 36.72473498 -9.875 34.1875 C-12.0365286 29.86444281 -11.14926848 24.12335536 -11.1875 19.375 C-11.21650391 18.18583984 -11.24550781 16.99667969 -11.27539062 15.77148438 C-11.28376953 14.62357422 -11.29214844 13.47566406 -11.30078125 12.29296875 C-11.31536377 11.24262451 -11.32994629 10.19228027 -11.3449707 9.11010742 C-10.75895186 5.46583125 -9.40766275 3.81976019 -6.875 1.1875 C-4.42528376 -0.03735812 -2.73265539 0.02027192 0 0 Z " fill="#CBB4FA" transform="translate(72.875,42.8125)"/>
<path d="M0 0 C3.1875 1.5625 3.1875 1.5625 5 4 C5.3125 7.75 5.3125 7.75 5 11 C2.36 11 -0.28 11 -3 11 C-3.103125 10.360625 -3.20625 9.72125 -3.3125 9.0625 C-3.539375 8.381875 -3.76625 7.70125 -4 7 C-4.99 6.67 -5.98 6.34 -7 6 C-6.67 8.31 -6.34 10.62 -6 13 C-5.278125 13.2475 -4.55625 13.495 -3.8125 13.75 C0.84030977 15.81791545 4.07024604 18.24051715 6 23 C6.265625 25.21875 6.265625 25.21875 6.25 27.5 C6.25515625 28.2528125 6.2603125 29.005625 6.265625 29.78125 C5.96055729 32.32946266 5.42872424 33.8659562 4 36 C0.91528069 38.13089163 -1.80646231 38.29727938 -5.5 38.3125 C-6.4384375 38.32925781 -7.376875 38.34601563 -8.34375 38.36328125 C-11.43998355 37.93982578 -12.77235373 37.16182945 -15 35 C-16.28317892 31.15046324 -16.06643637 28.05261865 -16 24 C-13.03 24 -10.06 24 -7 24 C-7 26.64 -7 29.28 -7 32 C-6.01 32 -5.02 32 -4 32 C-3.94224191 29.16985353 -3.95576782 27.58045836 -5 25 C-7.16108088 22.96554495 -9.4097363 21.33117254 -11.87109375 19.67578125 C-14.78692691 17.38056579 -15.75504789 15.44134978 -16.37109375 11.81640625 C-16.49109202 7.74352383 -16.30426889 5.51410951 -14.1875 1.9375 C-9.50225894 -0.91039162 -5.34491922 -0.84941745 0 0 Z " fill="#CBB4FA" transform="translate(55,43)"/>
<path d="M0 0 C2.97 0 5.94 0 9 0 C9.76914334 3.07657338 10.16965109 5.44405157 10.31640625 8.546875 C10.35451416 9.30838867 10.39262207 10.06990234 10.43188477 10.85449219 C10.47498779 11.81000977 10.51809082 12.76552734 10.5625 13.75 C10.706875 16.8025 10.85125 19.855 11 23 C11.66 15.41 12.32 7.82 13 0 C15.97 0 18.94 0 22 0 C22.24370017 8.08779939 21.31535553 15.65287901 20 23.625 C19.71382812 25.41744141 19.71382812 25.41744141 19.421875 27.24609375 C18.95482189 30.16517571 18.47837734 33.08275245 18 36 C13.38 36 8.76 36 4 36 C3.42661708 31.83785435 2.85572757 27.67551704 2.29101562 23.51220703 C2.09844121 22.09794825 1.90445216 20.68388131 1.70898438 19.27001953 C1.42720423 17.22998878 1.15063012 15.18930718 0.875 13.1484375 C0.70742187 11.92302246 0.53984375 10.69760742 0.3671875 9.43505859 C0.0273691 6.25603942 -0.06840372 3.19359852 0 0 Z " fill="#CCB4FB" transform="translate(101,44)"/>
<path d="M0 0 C3.3 0 6.6 0 10 0 C10 12.54 10 25.08 10 38 C6.7 38 3.4 38 0 38 C0 25.46 0 12.92 0 0 Z " fill="#C6AEF5" transform="translate(28,43)"/>
<path d="M0 0 C4.95 0 9.9 0 15 0 C15 2.31 15 4.62 15 7 C10.05 7 5.1 7 0 7 C0 4.69 0 2.38 0 0 Z " fill="#C6AEF5" transform="translate(85,60)"/>
<path d="M0 0 C1.32 0.33 2.64 0.66 4 1 C4 2.32 4 3.64 4 5 C6.64 5 9.28 5 12 5 C12.33 4.01 12.66 3.02 13 2 C14 3 14 3 14.09765625 6.16015625 C14.08605469 7.44792969 14.07445312 8.73570313 14.0625 10.0625 C14.05347656 11.35285156 14.04445313 12.64320312 14.03515625 13.97265625 C14.02355469 14.97167969 14.01195312 15.97070312 14 17 C13.34 17 12.68 17 12 17 C11.62875 16.278125 11.2575 15.55625 10.875 14.8125 C8.92023438 11.88035157 7.87710597 11.23863196 4.875 9.625 C2.7421875 8.40234375 2.7421875 8.40234375 1 7 C0 3.1875 0 3.1875 0 0 Z " fill="#4F2980" transform="translate(48,49)"/>
<path d="M0 0 C1.32 0.33 2.64 0.66 4 1 C4 2.32 4 3.64 4 5 C6.64 5 9.28 5 12 5 C12 5.33 12 5.66 12 6 C9.36 6 6.72 6 4 6 C3.67 6.66 3.34 7.32 3 8 C1.5 6.8125 1.5 6.8125 0 5 C-0.1875 2.3125 -0.1875 2.3125 0 0 Z " fill="#634092" transform="translate(48,49)"/>
<path d="M0 0 C0.99 0 1.98 0 3 0 C4.35439668 2.70879335 4.06501451 5.00933268 4 8 C2.68 8.33 1.36 8.66 0 9 C0 6.03 0 3.06 0 0 Z " fill="#664496" transform="translate(14,49)"/>
<path d="M0 0 C0.33 0 0.66 0 1 0 C1.91657981 5.38490641 2.11138159 10.54230189 2 16 C0.35 14.35 -1.3 12.7 -3 11 C-2.34 11 -1.68 11 -1 11 C-0.67 7.37 -0.34 3.74 0 0 Z " fill="#59358A" transform="translate(26,49)"/>
</svg>
